# xmcd CD database file
#
# Track frame offsets:
#	183
#	11195
#	24483
#	35258
#	46158
#	56095
#	65770
#	85133
#	102408
#	114958
#
# Disc length: 1701 seconds
#
# Revision: 0
# Processed by: cddbd v1.4PL0 Copyright (c) Steve Scherf et al.
# Submitted via: CDex 1.50
#
DISCID=7d06a30a
DTITLE=Disneyland Collection - Far West Festival
DYEAR=1900
DGENRE=Country
TTITLE0=Roger Miller- King of the Road
TTITLE1=Hank Williams - Hey Good Looking
TTITLE2=Patsy Cline - Honky Tonk Merry Go Round
TTITLE3=Johnny Cash - Cry, cry, cry
TTITLE4=Donna Fargo&Dolly Parton - Sticks and Stones
TTITLE5=Johnny Rodrigues - Ridin my thumb to Mexico
TTITLE6=Mac Davis - Texas in my rearview mirror
TTITLE7=CW McCall - Convoy
TTITLE8=Reba McEntire - You Lift Me Up to Heaven
TTITLE9=The Statler Brothers - Take me home, Country Roads
EXTD=
EXTT0=
EXTT1=
EXTT2=
EXTT3=
EXTT4=
EXTT5=
EXTT6=
EXTT7=
EXTT8=
EXTT9=
PLAYORDER=
